<svg width="34" height="44" viewBox="0 0 34 44" fill="none" xmlns="http://www.w3.org/2000/svg">
<path fill-rule="evenodd" clip-rule="evenodd" d="M29.0882 9.668C26.5468 9.668 24.4953 7.60238 24.4953 5.04347C24.4953 2.48457 26.5468 0.418945 29.0882 0.418945C31.6296 0.418945 33.6812 2.48457 33.6812 5.04347C33.6812 7.60238 31.6296 9.668 29.0882 9.668ZM26.0271 17.3757C26.0271 19.0713 27.4049 20.4587 29.089 20.4587C30.7731 20.4587 32.151 19.0713 32.151 17.3757C32.151 15.68 30.7731 14.2927 29.089 14.2927C27.4049 14.2927 26.0271 15.68 26.0271 17.3757ZM16.8408 20.4587C15.1568 20.4587 13.7789 19.0713 13.7789 17.3757C13.7789 15.68 15.1568 14.2927 16.8408 14.2927C18.5249 14.2927 19.9028 15.68 19.9028 17.3757C19.9028 19.0713 18.5249 20.4587 16.8408 20.4587ZM4.59291 9.668C2.05148 9.668 -2.30765e-05 7.60238 -2.30094e-05 5.04347C-2.29423e-05 2.48457 2.05149 0.418943 4.59291 0.418943C7.13433 0.418943 9.18584 2.48457 9.18584 5.04347C9.18584 7.60238 7.13433 9.668 4.59291 9.668ZM12.2483 5.04347C12.2483 7.60238 14.2998 9.668 16.8412 9.668C19.3826 9.668 21.4341 7.60238 21.4341 5.04347C21.4341 2.48457 19.3826 0.418944 16.8412 0.418944C14.2998 0.418944 12.2483 2.48457 12.2483 5.04347ZM4.59305 20.4587C2.90897 20.4587 1.53109 19.0713 1.53109 17.3757C1.53109 15.68 2.90897 14.2927 4.59305 14.2927C6.27712 14.2927 7.655 15.68 7.655 17.3757C7.655 19.0713 6.27712 20.4587 4.59305 20.4587ZM3.06195 42.0395C3.06195 42.9027 3.73558 43.581 4.59292 43.581C5.45027 43.581 6.1239 42.9027 6.1239 42.0395C6.1239 41.1762 5.45027 40.498 4.59292 40.498C3.73558 40.498 3.06195 41.1762 3.06195 42.0395ZM29.0886 43.5809C28.2313 43.5809 27.5576 42.9027 27.5576 42.0394C27.5576 41.1762 28.2313 40.4979 29.0886 40.4979C29.946 40.4979 30.6196 41.1762 30.6196 42.0394C30.6196 42.9027 29.946 43.5809 29.0886 43.5809ZM15.31 42.0394C15.31 42.9027 15.9836 43.5809 16.841 43.5809C17.6983 43.5809 18.372 42.9027 18.372 42.0394C18.372 41.1762 17.6983 40.4979 16.841 40.4979C15.9836 40.4979 15.31 41.1762 15.31 42.0394ZM29.089 32.7904C27.4049 32.7904 26.0271 31.4031 26.0271 29.7074C26.0271 28.0117 27.4049 26.6244 29.089 26.6244C30.7731 26.6244 32.151 28.0117 32.151 29.7074C32.151 31.4031 30.7731 32.7904 29.089 32.7904ZM13.7789 29.7074C13.7789 31.4031 15.1568 32.7904 16.8408 32.7904C18.5249 32.7904 19.9028 31.4031 19.9028 29.7074C19.9028 28.0117 18.5249 26.6244 16.8408 26.6244C15.1568 26.6244 13.7789 28.0117 13.7789 29.7074ZM4.59305 32.7904C2.90897 32.7904 1.53109 31.4031 1.53109 29.7074C1.53109 28.0117 2.90897 26.6244 4.59305 26.6244C6.27712 26.6244 7.655 28.0117 7.655 29.7074C7.655 31.4031 6.27712 32.7904 4.59305 32.7904Z" fill="#D2AB67"/>
</svg>
