<svg width="34" height="26" viewBox="0 0 34 26" fill="none" xmlns="http://www.w3.org/2000/svg">
<path fill-rule="evenodd" clip-rule="evenodd" d="M28.665 4.70897C22.3854 -0.797852 12.0627 -0.916455 5.61173 4.4441C-0.839213 9.80466 -0.978149 18.6166 5.30146 24.1235C6.35016 25.0431 8.06635 25.0628 9.14368 24.1676C9.64989 23.747 9.91465 23.2032 9.96187 22.6461C10.0087 22.1108 10.2735 21.5671 10.7667 21.1573C11.8441 20.262 13.5602 20.2818 14.609 21.2014L16.8453 23.1626C20.3326 26.2207 26.0703 26.2866 29.6527 23.3097C35.3898 18.5424 34.9447 10.2158 28.665 4.70897ZM10.034 8.32208C8.98526 7.40243 9.00835 5.93741 10.0857 5.04218C11.163 4.14696 12.8792 4.16668 13.9279 5.08633C14.9766 6.00598 14.9535 7.471 13.8762 8.36622C12.7989 9.26144 11.0827 9.24173 10.034 8.32208ZM19.0683 4.05163C17.991 4.94685 17.9679 6.41187 19.0166 7.33152C20.0653 8.25117 21.7815 8.27089 22.8588 7.37567C23.9361 6.48044 23.9592 5.01543 22.9105 4.09578C21.8618 3.17612 20.1456 3.15641 19.0683 4.05163ZM25.3339 12.8715C24.2852 11.9518 24.3083 10.4868 25.3856 9.5916C26.4629 8.69637 28.1791 8.71609 29.2278 9.63574C30.2765 10.5554 30.2534 12.0204 29.1761 12.9156C28.0988 13.8109 26.3826 13.7911 25.3339 12.8715ZM23.9842 17.2305C22.9069 18.1257 22.8838 19.5907 23.9325 20.5104C24.9812 21.43 26.6974 21.4497 27.7747 20.5545C28.852 19.6593 28.8751 18.1943 27.8264 17.2746C26.7777 16.355 25.0615 16.3353 23.9842 17.2305Z" fill="#D2AB67"/>
</svg>
