<svg width="138" height="138" viewBox="0 0 138 138" fill="none" xmlns="http://www.w3.org/2000/svg">
<path d="M0.295761 1.60474C0.295761 1.60474 47.673 9.85475 50.6783 38.2137C53.8038 66.5727 63.1804 71.1197 82.0537 81.6496C100.927 92.1795 98.2824 104.265 104.173 110.009C110.063 115.632 121.123 108.453 126.172 114.915C131.221 121.376 137.111 127 137.111 127V3.1539L0.295761 1.60474Z" fill="#D2AB67"/>
<path d="M4.7166 1.59711C4.7166 1.59711 50.3892 7.44874 53.3627 35.1544C56.3361 62.8601 65.4944 67.1593 83.6921 77.4295C101.89 87.6997 99.392 99.5224 105.101 105.016C110.81 110.509 121.515 103.463 126.391 109.793C131.268 116.122 136.977 121.615 136.977 121.615V1L4.7166 1.59711Z" fill="#25203A"/>
<path d="M24 2C24 2 59.6439 7.80324 62.2683 32.9086C64.8926 57.8877 72.8907 61.9248 89.0117 71.1343C105.133 80.3437 102.883 91.0671 107.882 96.1134C112.881 101.034 122.378 94.7257 126.627 100.403C131.001 106.08 136 111 136 111V2H24Z" fill="#0B8596"/>
<path d="M37 2C37 2 72.5063 8.02339 74.7504 27.9181C76.9945 47.8128 83.5864 51.1518 96.9106 58.5254C110.235 65.899 108.412 74.3855 112.619 78.4201C116.827 82.4547 124.541 77.3071 128.187 81.8982C131.834 86.4893 135.901 90.3848 135.901 90.3848V3.15405L37 2Z" fill="#25203A"/>
<path d="M44 2C44 2 79.5132 7.22157 81.434 24.5763C83.3547 41.931 89.2543 44.6427 101.19 51.0151C113.127 57.3876 111.343 64.8447 115.185 68.2343C118.889 71.6239 125.886 67.2852 129.042 71.2171C132.197 75.149 135.901 78.5386 135.901 78.5386V3.15405L44 2Z" fill="#D2AB67"/>
<path d="M54 2C54 2 83.064 7.01094 84.8716 23.4027C86.6792 39.6567 92.241 42.2739 103.365 48.3347C114.488 54.3955 112.959 61.2828 116.435 64.5887C119.911 67.8946 126.446 63.6245 129.366 67.3436C132.286 71.0628 135.901 74.2309 135.901 74.2309V3.15405L54 2Z" fill="#F9B9B3"/>
<path d="M64 2C64 2 89.352 6.70877 91.0054 21.0546C92.6588 35.4004 97.4918 37.6856 107.285 42.8907C117.078 48.2228 115.679 54.3166 118.732 57.1096C121.784 59.9026 127.507 56.3479 130.178 59.5217C132.849 62.6956 135.901 65.6155 135.901 65.6155V2H64Z" fill="#25203A"/>
<path d="M92.8901 2.20124C92.8901 2.20124 107.759 4.11305 108.658 13.2696C109.556 22.4262 112.55 23.8349 118.537 27.256C124.425 30.6771 123.627 34.5008 125.523 36.3119C127.419 38.1231 130.812 35.8088 132.409 37.9219C134.005 40.0349 135.902 41.8461 135.902 41.8461V2L92.8901 2.20124Z" fill="#D2AB67"/>
<path fill-rule="evenodd" clip-rule="evenodd" d="M0.5 0.300049H137.4V137.2H0.5V0.300049ZM2.5 2.30005V135.2H135.4V2.30005H2.5Z" fill="#25203A"/>
<path d="M22.976 107.84C22.208 107.477 21.3547 107.168 20.416 106.912C19.4773 106.656 18.56 106.528 17.664 106.528C16.1707 106.528 14.976 106.901 14.08 107.648C13.184 108.373 12.736 109.312 12.736 110.464C12.736 111.275 12.9707 111.968 13.44 112.544C13.9307 113.099 14.5493 113.568 15.296 113.952C16.0427 114.315 17.0027 114.72 18.176 115.168C19.456 115.637 20.512 116.117 21.344 116.608C22.1973 117.099 22.912 117.771 23.488 118.624C24.064 119.456 24.352 120.533 24.352 121.856C24.352 123.115 24.0533 124.235 23.456 125.216C22.8587 126.176 22.016 126.923 20.928 127.456C19.8613 127.989 18.6347 128.256 17.248 128.256C14.8373 128.256 12.448 127.477 10.08 125.92L10.816 124.64C11.6053 125.237 12.576 125.76 13.728 126.208C14.88 126.656 16 126.88 17.088 126.88C18.048 126.88 18.9547 126.699 19.808 126.336C20.6827 125.952 21.3867 125.387 21.92 124.64C22.4747 123.872 22.752 122.955 22.752 121.888C22.752 120.885 22.496 120.043 21.984 119.36C21.4933 118.677 20.864 118.133 20.096 117.728C19.3493 117.301 18.4 116.875 17.248 116.448C15.968 115.979 14.912 115.531 14.08 115.104C13.248 114.656 12.544 114.069 11.968 113.344C11.4133 112.619 11.136 111.712 11.136 110.624C11.136 109.557 11.4027 108.619 11.936 107.808C12.4907 106.976 13.248 106.336 14.208 105.888C15.1893 105.419 16.2773 105.173 17.472 105.152C18.496 105.152 19.552 105.291 20.64 105.568C21.7493 105.845 22.7307 106.197 23.584 106.624L22.976 107.84Z" fill="#25203A"/>
<path d="M50.8818 123.808L54.1138 128H52.2897L50.1458 125.216C49.4844 126.133 48.5671 126.869 47.3938 127.424C46.2418 127.979 44.9511 128.256 43.5218 128.256C42.1138 128.256 40.8444 127.979 39.7138 127.424C38.6044 126.848 37.7298 126.069 37.0898 125.088C36.4498 124.107 36.1298 123.019 36.1298 121.824C36.1298 120.715 36.4178 119.701 36.9938 118.784C37.5911 117.845 38.3698 117.077 39.3298 116.48C40.3111 115.861 41.3778 115.456 42.5298 115.264L40.4818 112.608C40.0978 111.989 39.7884 111.403 39.5538 110.848C39.3404 110.272 39.2338 109.643 39.2338 108.96C39.2338 108.021 39.4578 107.168 39.9058 106.4C40.3538 105.632 40.9724 105.035 41.7618 104.608C42.5724 104.16 43.4898 103.936 44.5138 103.936C45.4524 103.936 46.3377 104.107 47.1698 104.448C48.0018 104.789 48.7484 105.227 49.4098 105.76L48.6418 106.816C47.2337 105.792 45.9324 105.28 44.7378 105.28C43.6071 105.28 42.6684 105.632 41.9218 106.336C41.1964 107.019 40.8338 107.893 40.8338 108.96C40.8338 109.6 40.9511 110.187 41.1858 110.72C41.4204 111.253 41.6338 111.659 41.8258 111.936L49.9218 122.528L52.6738 115.168H54.2098L50.8818 123.808ZM43.6818 126.848C44.8978 126.848 46.0071 126.592 47.0098 126.08C48.0124 125.547 48.7698 124.875 49.2818 124.064L43.4258 116.448C42.5084 116.491 41.6124 116.747 40.7378 117.216C39.8844 117.685 39.1804 118.325 38.6258 119.136C38.0711 119.925 37.7938 120.811 37.7938 121.792C37.7938 122.773 38.0604 123.648 38.5938 124.416C39.1271 125.184 39.8418 125.781 40.7378 126.208C41.6338 126.635 42.6151 126.848 43.6818 126.848Z" fill="#25203A"/>
<path d="M79.0397 107.84C78.2718 107.477 77.4184 107.168 76.4798 106.912C75.5411 106.656 74.6237 106.528 73.7278 106.528C72.2344 106.528 71.0398 106.901 70.1438 107.648C69.2478 108.373 68.7998 109.312 68.7998 110.464C68.7998 111.275 69.0344 111.968 69.5037 112.544C69.9944 113.099 70.6131 113.568 71.3598 113.952C72.1064 114.315 73.0664 114.72 74.2398 115.168C75.5198 115.637 76.5758 116.117 77.4078 116.608C78.2611 117.099 78.9758 117.771 79.5518 118.624C80.1277 119.456 80.4158 120.533 80.4158 121.856C80.4158 123.115 80.1171 124.235 79.5198 125.216C78.9224 126.176 78.0798 126.923 76.9918 127.456C75.9251 127.989 74.6984 128.256 73.3118 128.256C70.9011 128.256 68.5118 127.477 66.1438 125.92L66.8798 124.64C67.6691 125.237 68.6398 125.76 69.7918 126.208C70.9438 126.656 72.0637 126.88 73.1517 126.88C74.1117 126.88 75.0184 126.699 75.8717 126.336C76.7464 125.952 77.4504 125.387 77.9837 124.64C78.5384 123.872 78.8158 122.955 78.8158 121.888C78.8158 120.885 78.5598 120.043 78.0478 119.36C77.5571 118.677 76.9277 118.133 76.1598 117.728C75.4131 117.301 74.4638 116.875 73.3118 116.448C72.0318 115.979 70.9758 115.531 70.1438 115.104C69.3118 114.656 68.6077 114.069 68.0317 113.344C67.4771 112.619 67.1998 111.712 67.1998 110.624C67.1998 109.557 67.4664 108.619 67.9998 107.808C68.5544 106.976 69.3118 106.336 70.2718 105.888C71.2531 105.419 72.3411 105.173 73.5358 105.152C74.5598 105.152 75.6158 105.291 76.7038 105.568C77.8131 105.845 78.7944 106.197 79.6478 106.624L79.0397 107.84Z" fill="#25203A"/>
</svg>
