<svg width="307" height="236" viewBox="0 0 307 236" fill="none" xmlns="http://www.w3.org/2000/svg">
<path d="M53.7999 48.9998C52.3999 48.5998 50.9999 48.3998 49.6999 48.3998C47.4999 48.3998 45.6999 48.8998 44.2999 49.9998C42.9999 51.0998 42.2999 52.4998 42.2999 54.1998C42.2999 55.3998 42.6999 56.3998 43.3999 57.2998C44.0999 58.0998 44.9999 58.7998 46.0999 59.3998C47.1999 59.9998 48.5999 60.5998 50.3999 61.1998C52.2999 61.8998 53.8999 62.5998 55.1999 63.3998C56.4999 64.0998 57.4999 65.0998 58.3999 66.3998C59.2999 67.6998 59.6999 69.2998 59.6999 71.2998C59.6999 73.1998 59.2999 74.7998 58.3999 76.2998C57.4999 77.6998 56.2999 78.8998 54.5999 79.6998C52.9999 80.4998 51.1999 80.8998 49.0999 80.8998C45.4999 80.8998 41.8999 79.6998 38.3999 77.3998L39.4999 75.4998C40.6999 76.3998 42.0999 77.1998 43.7999 77.7998C45.4999 78.4998 47.1999 78.7998 48.7999 78.7998C50.1999 78.7998 51.5999 78.4998 52.8999 77.9998C54.1999 77.3998 55.1999 76.5998 56.0999 75.4998C56.9999 74.3998 57.2999 72.9998 57.2999 71.3998C57.2999 69.8998 56.8999 68.5998 56.1999 67.5998C55.4999 66.5998 54.4999 65.7998 53.3999 65.0998C52.2999 64.4998 50.7999 63.8998 49.0999 63.1998C47.1999 62.4998 45.5999 61.7998 44.3999 61.1998C43.1999 60.4998 42.0999 59.6998 41.2999 58.5998C40.4999 57.4998 39.9999 56.1998 39.9999 54.4998C39.9999 52.8998 40.3999 51.4998 41.1999 50.2998C41.9999 49.0998 43.0999 48.0998 44.5999 47.3998C45.9999 46.6998 47.6999 46.3998 49.4999 46.2998C50.9999 46.2998 52.5999 46.4998 54.2999 46.8998C55.8999 47.2998 57.3999 47.7998 58.6999 48.4998L57.7999 50.2998C56.4999 49.7998 55.2999 49.3998 53.7999 48.9998Z" fill="#D2AB67"/>
<path d="M103.2 80.4998H100.9V64.4998H80.4V80.4998H78V46.5999H80.3V62.3998H100.8V46.5999H103.1V80.4998H103.2Z" fill="#D2AB67"/>
<path d="M125.9 46.5999V80.4998H123.6V46.5999H125.9Z" fill="#D2AB67"/>
<path d="M148.6 46.5999V78.2998H167.2V80.4998H146.3V46.5999H148.6Z" fill="#D2AB67"/>
<path d="M203.4 69.2998H188.4L183.9 80.4998H181.6L195.9 45.0999H196.1L210.4 80.4998H207.8L203.4 69.2998ZM202.6 67.0999L196.1 50.3998L189.4 67.0999H202.6Z" fill="#D2AB67"/>
<path d="M59.5 126.6H44.5L40 137.8H37.7L52 102.4H52.2L66.5 137.8H64L59.5 126.6ZM58.7 124.4L52.2 107.7L45.5 124.4H58.7Z" fill="#D2AB67"/>
<path d="M112.5 103.9V138.6H112.4L86.3 109.2V137.8H84V103.2H84.1L110.2 132.9V103.9H112.5Z" fill="#D2AB67"/>
<path d="M132.8 103.9H141.2C145.3 103.9 148.8 104.7 151.5 106.4C154.2 108.1 156.2 110.2 157.5 112.9C158.8 115.5 159.4 118.2 159.4 121.1C159.4 124.4 158.6 127.3 157.1 129.9C155.6 132.4 153.6 134.4 151 135.8C148.5 137.2 145.7 137.9 142.8 137.9H132.8V103.9ZM142.2 135.6C144.9 135.6 147.4 135 149.7 133.8C151.9 132.6 153.7 130.9 155 128.7C156.3 126.5 157 123.9 157 120.9C157 118.3 156.4 115.8 155.2 113.6C154 111.4 152.2 109.6 149.9 108.2C147.6 106.9 144.8 106.2 141.5 106.2H135.1V135.6H142.2Z" fill="#D2AB67"/>
<path d="M53.7999 163.7C52.3999 163.3 50.9999 163.1 49.6999 163.1C47.4999 163.1 45.6999 163.6 44.2999 164.7C42.9999 165.8 42.2999 167.2 42.2999 168.9C42.2999 170.1 42.6999 171.1 43.3999 172C44.0999 172.8 44.9999 173.5 46.0999 174.1C47.1999 174.7 48.5999 175.3 50.3999 175.9C52.2999 176.6 53.8999 177.3 55.1999 178.1C56.4999 178.8 57.4999 179.8 58.3999 181.1C59.2999 182.4 59.6999 184 59.6999 186C59.6999 187.9 59.2999 189.5 58.3999 191C57.4999 192.5 56.2999 193.6 54.5999 194.4C52.9999 195.2 51.1999 195.6 49.0999 195.6C45.4999 195.6 41.8999 194.4 38.3999 192.1L39.4999 190.2C40.6999 191.1 42.0999 191.9 43.7999 192.5C45.4999 193.2 47.1999 193.5 48.7999 193.5C50.1999 193.5 51.5999 193.2 52.8999 192.7C54.1999 192.1 55.1999 191.3 56.0999 190.2C56.8999 189.1 57.2999 187.7 57.2999 186.1C57.2999 184.6 56.8999 183.3 56.1999 182.3C55.4999 181.3 54.4999 180.5 53.3999 179.8C52.2999 179.2 50.7999 178.6 49.0999 177.9C47.1999 177.2 45.5999 176.5 44.3999 175.9C43.1999 175.2 42.0999 174.4 41.2999 173.3C40.4999 172.2 39.9999 170.9 39.9999 169.2C39.9999 167.6 40.3999 166.2 41.1999 165C41.9999 163.8 43.0999 162.8 44.5999 162.1C45.9999 161.4 47.6999 161.1 49.4999 161C50.9999 161 52.5999 161.2 54.2999 161.6C55.8999 162 57.3999 162.5 58.6999 163.2L57.7999 165C56.4999 164.5 55.2999 164.1 53.7999 163.7Z" fill="#D2AB67"/>
<path d="M96.9999 161.3V163.5H86.9999V195.2H84.6999V163.5H74.7999V161.3H96.9999Z" fill="#D2AB67"/>
<path d="M138.9 161.3L126.2 183.1V195.2H123.9V183.1L111.2 161.3H114.1L125.1 180.5L136 161.3H138.9Z" fill="#D2AB67"/>
<path d="M158.2 161.3V193H176.8V195.2H155.9V161.3H158.2Z" fill="#D2AB67"/>
<path d="M215.1 161.3V163.5H196.5V177H213.2V179.2H196.5V192.9H215.8V195.1H194.2V161.2H215.1V161.3Z" fill="#D2AB67"/>
<path d="M192.21 3.27539C192.21 3.27539 231.169 8.32064 233.653 31.7662C236.237 55.2118 243.989 58.971 259.593 67.6765C275.196 76.382 273.01 86.3736 277.88 91.1221C282.749 95.7716 291.893 89.836 296.067 95.1781C300.241 100.52 305.111 105.17 305.111 105.17V2.78076L192.21 3.27539Z" fill="#D2AB67"/>
<path d="M196.655 1.49365C196.655 1.49365 234.414 6.33145 236.873 29.2369C239.331 52.1424 246.903 55.6967 261.947 64.1875C276.992 72.6784 274.927 82.4527 279.647 86.9943C284.367 91.5359 293.217 85.7108 297.248 90.9435C301.28 96.1762 306 100.718 306 100.718V1L196.655 1.49365Z" fill="#25203A"/>
<path d="M212.885 2.98428C212.885 2.98428 242.236 7.52099 244.397 28.0276C246.558 48.4312 253.144 51.7287 266.419 59.2513C279.694 66.7738 277.841 75.5329 281.957 79.6548C286.074 83.6737 293.894 78.5213 297.393 83.1585C300.995 87.7957 305.111 91.8145 305.111 91.8145V2.78076L212.885 2.98428Z" fill="#0B8596"/>
<path d="M223.782 2.98428C223.782 2.98428 252.7 6.80645 254.555 23.2543C256.41 39.7021 261.86 42.4626 272.876 48.5586C283.891 54.6547 282.384 61.6709 285.863 65.0064C289.341 68.342 295.719 64.0863 298.734 67.8819C301.748 71.6776 305.111 74.8981 305.111 74.8981V2.78076L223.782 2.98428Z" fill="#25203A"/>
<path d="M230.716 2.98428C230.716 2.98428 258.493 6.14355 260.08 20.4914C261.668 34.8393 266.546 37.0812 276.414 42.3496C286.282 47.6179 284.808 53.783 287.984 56.5854C291.046 59.3877 296.831 55.8007 299.44 59.0514C302.049 62.3021 305.111 65.1044 305.111 65.1044V2.78076L230.716 2.98428Z" fill="#D2AB67"/>
<path d="M238.381 2.78076C238.381 2.78076 261.428 5.96941 262.922 19.5212C264.417 32.9591 269.015 35.1228 278.211 40.1335C287.408 45.1443 286.143 50.8383 289.017 53.5714C291.891 56.3046 297.294 52.7743 299.708 55.849C302.122 58.9238 305.111 61.5431 305.111 61.5431V2.78076H238.381Z" fill="#F9B9B3"/>
<path d="M246.105 2.78076C246.105 2.78076 266.627 5.7196 267.994 17.5799C269.36 29.4402 273.356 31.3295 281.453 35.6328C289.549 40.041 288.392 45.079 290.916 47.3881C293.44 49.6972 298.171 46.7584 300.379 49.3823C302.587 52.0063 305.111 54.4204 305.111 54.4204V2.78076H246.105Z" fill="#25203A"/>
<path d="M269.552 2.94714C269.552 2.94714 281.845 4.52771 282.587 12.0978C283.33 19.668 285.805 20.8326 290.755 23.661C295.623 26.4894 294.963 29.6505 296.531 31.1479C298.098 32.6453 300.903 30.732 302.223 32.4789C303.543 34.2259 305.111 35.7233 305.111 35.7233V2.78076L269.552 2.94714Z" fill="#D2AB67"/>
<path d="M306.6 235.4H0V0.899902H306.6V235.4ZM2.4 233H304.2V3.2999H2.4V233Z" fill="#D2AB67"/>
</svg>
