<svg width="307" height="235" viewBox="0 0 307 235" fill="none" xmlns="http://www.w3.org/2000/svg">
<rect width="307" height="235" fill="white" fill-opacity="0.6"/>
<path d="M192.21 2.27539C192.21 2.27539 231.169 7.32064 233.653 30.7662C236.237 54.2118 243.989 57.971 259.593 66.6765C275.196 75.382 273.01 85.3736 277.88 90.1221C282.749 94.7716 291.893 88.836 296.067 94.1781C300.241 99.5201 305.111 104.17 305.111 104.17V1.78076L192.21 2.27539Z" fill="#D2AB67"/>
<path d="M196.655 0.493653C196.655 0.493653 234.414 5.33145 236.873 28.2369C239.331 51.1424 246.903 54.6967 261.947 63.1875C276.992 71.6784 274.927 81.4527 279.647 85.9943C284.367 90.5359 293.217 84.7108 297.248 89.9435C301.28 95.1762 306 99.7178 306 99.7178V0L196.655 0.493653Z" fill="#25203A"/>
<path d="M212.885 1.98428C212.885 1.98428 242.236 6.52099 244.397 27.0276C246.558 47.4312 253.144 50.7287 266.419 58.2513C279.693 65.7738 277.841 74.5329 281.957 78.6548C286.074 82.6737 293.894 77.5213 297.393 82.1585C300.995 86.7957 305.111 90.8145 305.111 90.8145V1.78076L212.885 1.98428Z" fill="#0B8596"/>
<path d="M223.782 1.98428C223.782 1.98428 252.7 5.80645 254.555 22.2543C256.41 38.7021 261.86 41.4626 272.876 47.5586C283.891 53.6547 282.384 60.6709 285.863 64.0064C289.341 67.342 295.719 63.0863 298.734 66.8819C301.748 70.6776 305.111 73.8981 305.111 73.8981V1.78076L223.782 1.98428Z" fill="#25203A"/>
<path d="M230.716 1.98428C230.716 1.98428 258.492 5.14355 260.08 19.4914C261.668 33.8393 266.546 36.0812 276.414 41.3496C286.282 46.6179 284.808 52.783 287.984 55.5854C291.046 58.3877 296.831 54.8007 299.44 58.0514C302.048 61.3021 305.111 64.1044 305.111 64.1044V1.78076L230.716 1.98428Z" fill="#D2AB67"/>
<path d="M238.381 1.78076C238.381 1.78076 261.428 4.96941 262.923 18.5212C264.417 31.9591 269.015 34.1228 278.211 39.1335C287.408 44.1443 286.143 49.8383 289.017 52.5714C291.891 55.3046 297.294 51.7743 299.708 54.849C302.122 57.9238 305.111 60.5431 305.111 60.5431V1.78076H238.381Z" fill="#F9B9B3"/>
<path d="M246.105 1.78076C246.105 1.78076 266.627 4.7196 267.994 16.5799C269.36 28.4402 273.356 30.3295 281.453 34.6328C289.549 39.041 288.392 44.079 290.916 46.3881C293.44 48.6972 298.171 45.7584 300.379 48.3823C302.587 51.0063 305.111 53.4204 305.111 53.4204V1.78076H246.105Z" fill="#25203A"/>
<path d="M269.552 1.94714C269.552 1.94714 281.845 3.52771 282.587 11.0978C283.33 18.668 285.805 19.8326 290.755 22.661C295.623 25.4894 294.963 28.6505 296.531 30.1479C298.098 31.6453 300.903 29.732 302.223 31.4789C303.544 33.2259 305.111 34.7233 305.111 34.7233V1.78076L269.552 1.94714Z" fill="#D2AB67"/>
<path d="M53.8 48.1001C52.4 47.7001 51 47.5001 49.7 47.5001C47.5 47.5001 45.7 48.0001 44.3 49.1001C43 50.2001 42.3 51.6001 42.3 53.3001C42.3 54.5001 42.7 55.5001 43.4 56.4001C44.1 57.2001 45 57.9001 46.1 58.5001C47.2 59.1001 48.6 59.7001 50.4 60.3001C52.3 61.0001 53.9 61.7001 55.2 62.5001C56.5 63.2001 57.5 64.2001 58.4 65.5001C59.3 66.8001 59.7 68.4001 59.7 70.4001C59.7 72.3001 59.3 73.9001 58.4 75.4001C57.5 76.8001 56.3 78.0001 54.6 78.8001C53 79.6001 51.2 80.0001 49.1 80.0001C45.5 80.0001 41.9 78.8001 38.4 76.5001L39.5 74.6001C40.7 75.5001 42.1 76.3001 43.8 76.9001C45.5 77.6001 47.2 77.9001 48.8 77.9001C50.2 77.9001 51.6 77.6001 52.9 77.1001C54.2 76.5001 55.2 75.7001 56.1 74.6001C57 73.5001 57.3 72.1001 57.3 70.5001C57.3 69.0001 56.9 67.7001 56.2 66.7001C55.5 65.7001 54.5 64.9001 53.4 64.2001C52.3 63.6001 50.8 63.0001 49.1 62.3001C47.2 61.6001 45.6 60.9001 44.4 60.3001C43.2 59.6001 42.1 58.8001 41.3 57.7001C40.5 56.6001 40 55.3001 40 53.6001C40 52.0001 40.4 50.6001 41.2 49.4001C42 48.2001 43.1 47.2001 44.6 46.5001C46 45.8001 47.7 45.5001 49.5 45.4001C51 45.4001 52.6 45.6001 54.3 46.0001C55.9 46.4001 57.4 46.9001 58.7 47.6001L57.8 49.4001C56.5 48.9001 55.3 48.4001 53.8 48.1001Z" fill="#25203A"/>
<path d="M103.2 79.6001H100.9V63.6001H80.4V79.6001H78V45.6001H80.3V61.4001H100.8V45.6001H103.1V79.6001H103.2Z" fill="#25203A"/>
<path d="M125.9 45.6001V79.5001H123.6V45.6001H125.9Z" fill="#25203A"/>
<path d="M148.6 45.6001V77.3001H167.2V79.5001H146.3V45.6001H148.6Z" fill="#25203A"/>
<path d="M203.4 68.3001H188.4L184 79.6001H181.7L196 44.1001H196.2L210.5 79.5001H207.9L203.4 68.3001ZM202.6 66.1001L196 49.5001L189.3 66.2001H202.6V66.1001Z" fill="#25203A"/>
<path d="M59.5 125.7H44.5L40 136.9H37.7L52 101.5H52.2L66.5 136.9H64L59.5 125.7ZM58.7 123.5L52.2 106.8L45.5 123.5H58.7Z" fill="#25203A"/>
<path d="M112.5 103V137.7H112.4L86.3 108.3V136.9H84V102.3H84.1L110.2 132V103H112.5Z" fill="#25203A"/>
<path d="M132.8 103H141.2C145.3 103 148.8 103.8 151.5 105.5C154.2 107.2 156.2 109.3 157.5 112C158.8 114.6 159.4 117.3 159.4 120.2C159.4 123.5 158.6 126.4 157.1 129C155.6 131.5 153.6 133.5 151 134.9C148.5 136.3 145.7 137 142.8 137H132.8V103ZM142.2 134.7C144.9 134.7 147.4 134.1 149.7 132.9C151.9 131.7 153.7 130 155 127.8C156.3 125.6 157 123 157 120C157 117.4 156.4 114.9 155.2 112.7C154 110.5 152.2 108.7 149.9 107.3C147.6 106 144.8 105.3 141.5 105.3H135.1V134.7H142.2Z" fill="#25203A"/>
<path d="M53.8 162.8C52.4 162.4 51 162.2 49.7 162.2C47.5 162.2 45.7 162.7 44.3 163.8C43 164.9 42.3 166.3 42.3 168C42.3 169.2 42.7 170.2 43.4 171.1C44.1 171.9 45 172.6 46.1 173.2C47.2 173.8 48.6 174.4 50.4 175C52.3 175.7 53.9 176.4 55.2 177.2C56.5 177.9 57.5 178.9 58.4 180.2C59.3 181.5 59.7 183.1 59.7 185.1C59.7 187 59.3 188.6 58.4 190.1C57.5 191.6 56.3 192.7 54.6 193.5C53 194.3 51.2 194.7 49.1 194.7C45.5 194.7 41.9 193.5 38.4 191.2L39.5 189.3C40.7 190.2 42.1 191 43.8 191.6C45.5 192.3 47.2 192.6 48.8 192.6C50.2 192.6 51.6 192.3 52.9 191.8C54.2 191.3 55.2 190.4 56.1 189.3C56.9 188.2 57.3 186.8 57.3 185.2C57.3 183.7 56.9 182.4 56.2 181.4C55.5 180.4 54.5 179.6 53.4 178.9C52.3 178.3 50.8 177.7 49.1 177C47.2 176.3 45.6 175.6 44.4 175C43.2 174.3 42.1 173.5 41.3 172.4C40.5 171.3 40 170 40 168.3C40 166.7 40.4 165.3 41.2 164.1C42 162.9 43.1 161.9 44.6 161.2C46 160.5 47.7 160.2 49.5 160.1C51 160.1 52.6 160.3 54.3 160.7C55.9 161.1 57.4 161.6 58.7 162.3L57.8 164.1C56.5 163.6 55.3 163.1 53.8 162.8Z" fill="#25203A"/>
<path d="M97 160.3V162.5H87V194.2H84.7V162.5H74.8V160.3H97Z" fill="#25203A"/>
<path d="M138.9 160.3L126.2 182.1V194.2H123.9V182.1L111.2 160.3H114.1L125.1 179.5L136 160.3H138.9Z" fill="#25203A"/>
<path d="M158.2 160.3V192H176.8V194.2H155.9V160.3H158.2Z" fill="#25203A"/>
<path d="M215.1 160.3V162.5H196.5V176H213.2V178.2H196.5V192H215.8V194.2H194.2V160.3H215.1Z" fill="#25203A"/>
<path d="M306.6 234.5H0V0H306.6V234.5ZM2.4 232.1H304.2V2.4H2.4V232.1Z" fill="#25203A"/>
</svg>
