<svg width="1358" height="958" viewBox="0 0 1358 958" fill="none" xmlns="http://www.w3.org/2000/svg">
<g clip-path="url(#clip0)" filter="url(#filter0_d)">
<rect width="1350" height="950" transform="translate(4)" fill="#25203A"/>
<rect x="1359" y="-121" width="1397" height="1371" transform="rotate(90 1359 -121)" fill="#F5F5F5"/>
<path opacity="0.34" d="M932.93 1232.83L-65.3102 1243.65L-71.2791 320.088C-70.3235 321.014 -69.2202 322.088 -67.9831 323.301C-63.2064 327.984 -56.4356 334.733 -48.4668 342.992C-32.5241 359.515 -11.8099 382.056 7.31942 406.159C17.3926 418.852 30.4028 424.75 44.7355 427.17C58.9675 429.573 74.6467 428.567 90.1799 427.401C91.1055 427.331 92.0307 427.261 92.9552 427.191C107.667 426.076 122.206 424.975 135.753 426.407C150.078 427.922 163.065 432.253 173.716 442.266C184.508 452.634 191.518 465.983 198.189 481.705C200.35 486.798 202.482 492.161 204.699 497.737C209.271 509.233 214.202 521.636 220.489 534.449C239.307 572.809 270.533 615.553 342.442 654.976C345.915 656.88 349.345 658.758 352.731 660.611C419.128 696.956 468.853 724.174 505.343 766.485C543.59 810.834 567.465 872.017 579.914 978.409C592.107 1086.52 688.288 1151.24 780.348 1188.86C826.487 1207.71 871.849 1219.86 905.662 1227.31C915.907 1229.56 925.096 1231.38 932.93 1232.83Z" fill="#D2AB67" stroke="#D2AB67" stroke-width="5"/>
<path opacity="0.44" d="M718.747 1205.21L-279.493 1216.03L-285.462 292.472C-284.506 293.397 -283.403 294.472 -282.166 295.684C-277.389 300.367 -270.618 307.117 -262.649 315.376C-246.707 331.899 -225.993 354.439 -206.863 378.543C-196.79 391.236 -183.78 397.134 -169.447 399.554C-155.215 401.957 -139.536 400.951 -124.003 399.785C-123.077 399.715 -122.152 399.645 -121.227 399.575C-106.515 398.46 -91.9771 397.358 -78.4297 398.791C-64.1043 400.305 -51.1177 404.637 -40.4662 414.65C-29.6749 425.018 -22.6646 438.367 -15.9939 454.089C-13.8329 459.181 -11.7005 464.544 -9.48323 470.12C-4.91201 481.617 0.0196866 494.02 6.30594 506.833C25.1244 545.192 56.3504 587.937 128.259 627.36C131.733 629.264 135.162 631.141 138.548 632.995C204.945 669.339 254.671 696.558 291.16 738.869C329.407 783.217 353.282 844.401 365.731 950.793C377.924 1058.9 474.105 1123.62 566.166 1161.24C612.304 1180.09 657.666 1192.25 691.48 1199.69C701.725 1201.94 710.913 1203.77 718.747 1205.21Z" fill="#D2AB67" stroke="#D2AB67" stroke-width="5"/>
<path d="M503.234 1208.14L-145.494 1215.16L-149.401 610.61C-149.172 610.834 -148.934 611.066 -148.688 611.307C-145.544 614.382 -141.086 618.816 -135.839 624.242C-125.341 635.098 -111.706 649.901 -99.119 665.726C-92.3163 674.278 -83.5285 678.237 -73.9289 679.854C-64.4293 681.455 -53.9917 680.781 -43.7666 680.015C-43.1635 679.97 -42.5611 679.924 -41.9594 679.879C-32.2384 679.144 -22.7273 678.425 -13.8761 679.359C-4.55171 680.342 3.80891 683.144 10.6513 689.557C17.6353 696.253 22.2014 704.899 26.5879 715.214C27.9979 718.529 29.3965 722.039 30.8544 725.697C33.8748 733.275 37.1496 741.491 41.3075 749.948C53.7859 775.326 74.4906 803.575 122.057 829.593C124.325 830.833 126.563 832.055 128.773 833.262C172.609 857.204 205.258 875.035 229.208 902.743C254.262 931.727 269.966 971.772 278.162 1041.66C286.256 1113.28 350.088 1156.02 410.817 1180.78C441.291 1193.2 471.244 1201.21 493.565 1206.11C496.973 1206.86 500.205 1207.53 503.234 1208.14Z" fill="#D2AB67" stroke="#D2AB67" stroke-width="5"/>
<path d="M992.399 -189.764L1640.26 -155.584L1605.78 447.997C1605.57 447.759 1605.34 447.512 1605.11 447.256C1602.17 443.987 1598 439.28 1593.11 433.532C1583.32 422.031 1570.66 406.392 1559.1 389.8C1552.85 380.833 1544.33 376.324 1534.86 374.101C1525.48 371.901 1515.02 371.91 1504.77 372.025C1504.16 372.032 1503.56 372.039 1502.95 372.047C1493.21 372.163 1483.67 372.276 1474.89 370.783C1465.65 369.209 1457.48 365.883 1451.06 359.047C1444.52 351.922 1440.51 343.003 1436.79 332.431C1435.59 329.032 1434.42 325.441 1433.2 321.698C1430.66 313.944 1427.92 305.536 1424.3 296.832C1413.46 270.713 1394.59 241.207 1348.77 212.221C1346.59 210.84 1344.43 209.478 1342.3 208.133C1300.08 181.456 1268.62 161.588 1246.48 132.416C1223.32 101.9 1210.19 60.938 1206.45 -9.33388C1202.92 -81.3182 1141.93 -128.024 1082.89 -156.587C1053.27 -170.92 1023.88 -180.812 1001.92 -187.121C998.565 -188.084 995.383 -188.964 992.399 -189.764Z" fill="#D2AB67" stroke="#D2AB67" stroke-width="5"/>
<path opacity="0.29" d="M922.927 -189.97L1542.05 -157.745L1503.88 510.26C1503.78 510.124 1503.67 509.985 1503.56 509.844C1500.78 506.255 1496.85 501.084 1492.24 494.769C1483.01 482.135 1471.07 464.946 1460.2 446.69C1448.43 426.931 1427.72 427.023 1408.35 427.455C1407.77 427.468 1407.2 427.481 1406.63 427.494C1397.33 427.708 1388.28 427.916 1379.98 426.35C1371.28 424.709 1363.58 421.144 1357.52 413.642C1351.33 405.79 1347.57 395.914 1344.1 384.228C1342.99 380.46 1341.9 376.489 1340.76 372.355C1338.42 363.811 1335.89 354.57 1332.53 344.993C1322.45 316.292 1304.76 283.837 1261.32 252.161C1259.24 250.648 1257.2 249.157 1255.18 247.685C1215.18 218.567 1185.39 196.877 1164.54 164.8C1142.69 131.184 1130.52 85.8931 1127.56 8.13389C1124.84 -71.1275 1067.3 -122.237 1011.14 -153.385C983.017 -168.989 955.079 -179.68 934.185 -186.469C930.156 -187.778 926.387 -188.943 922.927 -189.97Z" fill="#D2AB67" stroke="#D2AB67" stroke-width="5"/>
<path d="M1583.95 725.924L1590.97 1374.65L986.418 1378.56C986.642 1378.33 986.874 1378.09 987.115 1377.85C990.19 1374.7 994.624 1370.24 1000.05 1365C1010.91 1354.5 1025.71 1340.86 1041.53 1328.28C1050.09 1321.47 1054.04 1312.69 1055.66 1303.09C1057.26 1293.59 1056.59 1283.15 1055.82 1272.92C1055.78 1272.32 1055.73 1271.72 1055.69 1271.12C1054.95 1261.4 1054.23 1251.89 1055.17 1243.03C1056.15 1233.71 1058.95 1225.35 1065.37 1218.51C1072.06 1211.52 1080.71 1206.96 1091.02 1202.57C1094.34 1201.16 1097.85 1199.76 1101.5 1198.3C1109.08 1195.28 1117.3 1192.01 1125.76 1187.85C1151.13 1175.37 1179.38 1154.67 1205.4 1107.1C1206.64 1104.83 1207.86 1102.59 1209.07 1100.38C1233.01 1056.55 1250.84 1023.9 1278.55 999.949C1307.53 974.896 1347.58 959.192 1417.47 950.996C1489.09 942.902 1531.83 879.07 1556.58 818.341C1569.01 787.866 1577.01 757.913 1581.92 735.592C1582.66 732.184 1583.34 728.953 1583.95 725.924Z" stroke="#D2AB67" stroke-width="5"/>
<path d="M1584.92 875.921L1591.94 1524.65L987.388 1528.56C987.612 1528.33 987.844 1528.09 988.084 1527.84C991.16 1524.7 995.593 1520.24 1001.02 1514.99C1011.88 1504.5 1026.68 1490.86 1042.5 1478.27C1051.06 1471.47 1055.01 1462.68 1056.63 1453.08C1058.23 1443.58 1057.56 1433.15 1056.79 1422.92C1056.75 1422.32 1056.7 1421.72 1056.66 1421.11C1055.92 1411.39 1055.2 1401.88 1056.14 1393.03C1057.12 1383.71 1059.92 1375.35 1066.33 1368.5C1073.03 1361.52 1081.68 1356.95 1091.99 1352.57C1095.31 1351.16 1098.82 1349.76 1102.47 1348.3C1110.05 1345.28 1118.27 1342.01 1126.73 1337.85C1152.1 1325.37 1180.35 1304.66 1206.37 1257.1C1207.61 1254.83 1208.83 1252.59 1210.04 1250.38C1233.98 1206.55 1251.81 1173.9 1279.52 1149.95C1308.5 1124.89 1348.55 1109.19 1418.44 1100.99C1490.06 1092.9 1532.8 1029.07 1557.55 968.338C1569.98 937.864 1577.98 907.911 1582.88 885.589C1583.63 882.181 1584.31 878.95 1584.92 875.921Z" stroke="#D2AB67" stroke-width="5"/>
</g>
<defs>
<filter id="filter0_d" x="0" y="0" width="1358" height="958" filterUnits="userSpaceOnUse" color-interpolation-filters="sRGB">
<feFlood flood-opacity="0" result="BackgroundImageFix"/>
<feColorMatrix in="SourceAlpha" type="matrix" values="0 0 0 0 0 0 0 0 0 0 0 0 0 0 0 0 0 0 127 0"/>
<feOffset dy="4"/>
<feGaussianBlur stdDeviation="2"/>
<feColorMatrix type="matrix" values="0 0 0 0 0 0 0 0 0 0 0 0 0 0 0 0 0 0 0.25 0"/>
<feBlend mode="normal" in2="BackgroundImageFix" result="effect1_dropShadow"/>
<feBlend mode="normal" in="SourceGraphic" in2="effect1_dropShadow" result="shape"/>
</filter>
<clipPath id="clip0">
<rect width="1350" height="950" fill="white" transform="translate(4)"/>
</clipPath>
</defs>
</svg>
